<svg id="Capa_1" data-name="Capa 1" xmlns="http://www.w3.org/2000/svg" viewBox="0 0 1920 1080"><defs><style>.cls-1,.cls-2,.cls-3{fill:#1976d2;}.cls-2{font-size:165.08354px;font-family:HelveticaRoundedLTStd-Bd, Helvetica Rounded LT Std;}.cls-3{stroke:#1976d2;stroke-miterlimit:10;stroke-width:12px;}</style></defs><path class="cls-1" d="M489.71109,403.72107l7.00269,22.44952,11.91116,38.18549h.00006l11.4906,36.83734,11.911,38.18549.00018-.00006,11.12,35.64959,8.50482,27.26471,3.7768,12.1081h.00012l16.24951,52.0932-59.40027,18.5288-38.18533,11.9112,0,.00006L436.89359,708.5379l-38.18534,11.911.00006.00025-36.18954,11.28827-37.63971,11.74109-1.55512.4851h0L274.42487,759.2168l-10.79944-34.62189L251.7141,686.40942l-12.50251-40.08068-5.24049-16.8-6.30017-20.19733-12.13184-38.893-2.56094-8.21-9.72055-31.163-.00012.00006-10.79969-34.622,49.8783-15.55853,38.18552-11.91117,0-.00009,37.19885-11.60339,38.18551-11.91116-.00006-.00016,37.1987-11.60336,38.18534-11.911-.00006-.00018,58.42123-18.22333m-97.7579-61.90772a17.98688,17.98688,0,0,0-5.36542.82142l-2.809.87616a17.99992,17.99992,0,0,0-11.82334,22.54348l9.238,29.61585-38.2085,11.91833-9.238-29.61584a17.981,17.981,0,0,0-22.54349-11.82334l-2.809.87619a17.99989,17.99989,0,0,0-11.82333,22.54334l9.23816,29.616-38.2085,11.91833-9.23816-29.61584a17.981,17.981,0,0,0-22.54335-11.82349l-2.809.87616a18.00015,18.00015,0,0,0-11.8235,22.54349l9.23816,29.616-88.06366,27.46967,23.08133,73.995-31.77933,9.913a18.0002,18.0002,0,0,0-11.8235,22.54352l.82066,2.63061a17.981,17.981,0,0,0,22.5435,11.82337l31.77933-9.91284,12.50234,40.08068-31.77933,9.913a17.99971,17.99971,0,0,0-11.82334,22.54333l.8205,2.63068a17.98115,17.98115,0,0,0,22.5435,11.82349l31.77933-9.913,12.5025,40.08063-31.77949,9.913a17.9997,17.9997,0,0,0-11.82334,22.54334l.82067,2.63068a17.981,17.981,0,0,0,22.54333,11.82348l31.77933-9.913,23.0815,73.99518,88.09384-27.47931,9.76584,31.30767a17.98078,17.98078,0,0,0,22.54333,11.82331l2.809-.87616a17.99971,17.99971,0,0,0,11.82334-22.54334l-9.76566-31.30767,38.2085-11.91834,9.76565,31.30768a17.98145,17.98145,0,0,0,22.54352,11.82336l2.809-.87622a17.99991,17.99991,0,0,0,11.82333-22.54346l-9.76565-31.30767,38.2085-11.91834,9.76565,31.30768a17.98117,17.98117,0,0,0,22.54352,11.82349l2.809-.87635a17.99971,17.99971,0,0,0,11.82336-22.54333l-9.76587-31.3078,97.5857-30.44-28.53119-91.466,31.02618-9.678a18.00008,18.00008,0,0,0,11.82349-22.54345l-.82062-2.63068a17.98094,17.98094,0,0,0-22.54352-11.82336l-31.02618,9.67785-11.86115-38.02514,31.02613-9.678a17.99984,17.99984,0,0,0,11.82336-22.54331l-.82068-2.63086a17.98077,17.98077,0,0,0-22.54333-11.82333l-31.02619,9.678-11.86114-38.02533,31.026-9.678a17.9999,17.9999,0,0,0,11.82349-22.54334l-.82068-2.63064a17.98109,17.98109,0,0,0-22.54346-11.82352l-31.026,9.678L515.98529,353.6246l-97.616,30.44931-9.238-29.61581a18.00931,18.00931,0,0,0-17.17807-12.64475Z"/><polygon class="cls-1" points="891.387 334.68 891.387 334.417 891.764 334.417 977.922 274.341 821.851 274.341 821.851 383.166 891.387 334.68"/><polygon class="cls-1" points="939.208 334.417 999.722 334.417 1066.842 274.341 978.415 274.341 939.208 334.417"/><polygon class="cls-1" points="996.881 553.907 891.387 553.907 891.387 465.921 995.846 465.921 995.846 405.846 892.591 405.846 821.851 514.238 821.851 613.982 1079.657 613.982 1079.657 613.219 996.881 553.907"/><path class="cls-1" d="M1310.02344,420.50977l-82.78125-20.34034c-14.19141-3.31152-35.95117-8.98779-35.95117-35.478,0-30.74707,32.167-40.68116,59.12988-40.68116,19.87976,0,33.959,3.70319,43.98559,9.22895l90.69642,20.40167-52.97168-71.34c-19.10462-10.34582-44.115-16.94732-76.50721-16.94732-110.21777,0-130.55761,66.69824-130.55761,104.5415,0,74.73975,52.97949,87.03906,107.85254,99.811l36.42382,8.51465c35.9502,8.51465,61.49414,15.61035,61.49414,42.1001,0,35.95166-37.36914,43.99268-70.95507,43.99268-44.92347,0-62.2483-18.8935-68.5625-36.49628l-71.45-17.49591c.29529,42.2077,22.13477,112.64844,145.21558,112.64844,29.80176,0,133.87012-8.98731,133.87012-111.16358C1398.95508,450.78418,1356.38184,431.86279,1310.02344,420.50977Z"/><path class="cls-1" d="M1662.29236,520.0224c-12.61463,27.13867-36.486,41.45319-67.976,41.45319-60.0752,0-84.2002-54.87256-84.2002-115.89454,0-68.06268,25.19067-99.28387,51.98975-111.69946,20.91284-10.77167,51.17212-17.54242,84.83349-17.54242,28.58814,0,54.72425,4.88288,74.76392,12.95313-21.32837-34.425-61.82813-63.93878-127.85962-63.93878-87.51172,0-156.10254,60.54882-156.10254,179.28125,0,117.31347,64.80664,178.335,155.15625,178.335,70.4375,0,115.62293-35.28534,137.16736-89.25171Z"/><text class="cls-2" transform="translate(860.99188 877.91039)">STUDIOS</text><line class="cls-3" x1="786.32979" y1="694.21606" x2="1761.63158" y2="694.27289"/></svg>