<svg id="Capa_1" data-name="Capa 1" xmlns="http://www.w3.org/2000/svg" viewBox="0 0 799.99529 800.0496"><defs><style>.cls-1{fill:#fff;}.cls-2{fill:#1976d2;}</style></defs><rect class="cls-1" width="799.99529" height="800.0496" rx="253.03544"/><path class="cls-2" d="M666.60968,243.528v331.888H136.584V243.528H666.60968M519.98682,134.944h-6.96967a17.126,17.126,0,0,0-17.126,17.126v60.458H415.92V151.757a16.8131,16.8131,0,0,0-16.813-16.813h-6.96966a19.187,19.187,0,0,0-19.187,19.187v58.397H287.01117V152.944a18,18,0,0,0-18-18H262.0415a18.00005,18.00005,0,0,0-18,18v59.584H105.584v85.93918H46a17.99993,17.99993,0,0,0-18,18v6.96967a17.99995,17.99995,0,0,0,18,18h59.584v46.55032H46a18,18,0,0,0-18,18v6.96967a18,18,0,0,0,18,18h59.584v46.55032H46a17.99995,17.99995,0,0,0-18,18v6.96967a17.99995,17.99995,0,0,0,18,18h59.584v85.93914H244.0415L244.04167,666a17.99991,17.99991,0,0,0,17.99983,18h6.96967a18,18,0,0,0,18-18V606.41595h85.93918v58.39039a18.00005,18.00005,0,0,0,18,18H397.92a17.99995,17.99995,0,0,0,18-18V606.41595H518.56952v58.42237a18,18,0,0,0,18,18h6.96966a17.99995,17.99995,0,0,0,18-18V606.41595h136.0705V500.18564H756a18.00005,18.00005,0,0,0,18-18V475.216a18,18,0,0,0-18-18H697.60968V413.05283H756a18.00008,18.00008,0,0,0,18-18v-6.96967a18,18,0,0,0-18-18H697.60968V325.92H756a17.99995,17.99995,0,0,0,18-18v-6.96966a18.00005,18.00005,0,0,0-18-18H697.60968V212.528H538.86084v-58.71a18.874,18.874,0,0,0-18.874-18.874Z" transform="translate(-0.00471 0.0496)"/><polygon class="cls-2" points="391.027 328.218 396.523 353.049 458.308 366.349 391.027 328.218 391.027 328.218"/><polygon class="cls-2" points="257.988 357.959 285.168 357.959 315.315 330.976 275.598 330.976 257.988 357.959"/><polygon class="cls-2" points="283.89 456.543 236.51 456.543 236.51 417.024 283.426 417.024 283.426 390.041 237.05 390.041 205.278 438.724 205.278 483.525 321.071 483.525 321.071 483.184 283.89 456.543"/><polygon class="cls-2" points="236.51 358.078 236.51 357.959 236.681 357.959 275.379 330.976 205.278 330.976 205.278 379.855 236.51 358.078"/><path class="cls-2" d="M424.542,396.57813l-37.18164-9.13575c-6.374-1.4873-16.147-4.03711-16.147-15.93506,0-13.81,14.44775-18.272,26.5581-18.272,8.92414,0,15.23908,1.66461,19.742,4.14441l40.74756,9.166L434.46783,334.502c-8.5805-4.64618-19.81164-7.61181-34.35943-7.61181-49.50391,0-58.64014,29.95752-58.64014,46.95459,0,33.56933,23.7959,39.09277,48.4419,44.8291l16.35937,3.82422c16.14746,3.82422,27.62012,7.01172,27.62012,18.91015,0,16.14649-16.78418,19.75879-31.86914,19.75879-20.17664,0-27.95545-8.485-30.79157-16.39081l-32.09442-7.85894c.13281,18.957,9.94214,50.59546,65.2229,50.59546,13.38574,0,60.127-4.03711,60.127-49.92872C464.48438,410.17578,445.36328,401.67773,424.542,396.57813Z" transform="translate(-0.00471 0.0496)"/><path class="cls-2" d="M617.87988,431.21h-.48065l.40338.37012C617.827,431.45581,617.856,431.33453,617.87988,431.21Z" transform="translate(-0.00471 0.0496)"/><path class="cls-2" d="M582.84467,441.09277c-5.64307,12.30756-16.402,18.79981-30.61615,18.79981-26.98243,0-37.81836-24.64649-37.81836-52.05371,0-30.49543,11.25958-44.51569,23.2633-50.11988,9.39588-4.865,23.02173-7.927,38.18891-7.927,12.84521,0,24.57849,2.2,33.5805,5.82721-9.57806-15.46594-27.76324-28.72906-57.42724-28.72906-39.30567,0-70.11231,27.19531-70.11231,80.52392,0,52.69043,29.10742,80.09864,69.6875,80.09864,31.621,0,51.90149-15.842,61.58392-40.0608Z" transform="translate(-0.00471 0.0496)"/><polygon class="cls-1" points="192.034 251.212 105.579 212.578 148.916 296.844 192.034 251.212"/><polygon class="cls-1" points="611.526 568.995 697.605 606.466 654.366 523.449 611.526 568.995"/></svg>